<svg width="21" height="21" viewBox="0 0 21 21" fill="none" xmlns="http://www.w3.org/2000/svg">
<path d="M3.50865 20.5714C2.3391 20.5714 1.46008 20.2809 0.871576 19.6999C0.290525 19.1263 0 18.2659 0 17.1186V3.46396C0 2.3093 0.290525 1.44518 0.871576 0.871576C1.46008 0.290525 2.3391 0 3.50865 0H17.0628C18.2323 0 19.1076 0.290525 19.6887 0.871576C20.2772 1.45263 20.5714 2.31675 20.5714 3.46396V17.1186C20.5714 18.2659 20.2772 19.1263 19.6887 19.6999C19.1076 20.2809 18.2323 20.5714 17.0628 20.5714H3.50865ZM5.02832 3.01699C4.56646 3.01699 4.18282 3.17716 3.8774 3.49748C3.57942 3.8178 3.43043 4.22379 3.43043 4.71545C3.43043 5.08047 3.5161 5.43059 3.68744 5.76581C3.85877 6.10103 4.07853 6.42135 4.34671 6.72678C4.62233 7.02475 4.91286 7.30038 5.21828 7.55366C5.53116 7.80694 5.82541 8.03042 6.10103 8.2241C6.15318 8.2539 6.20532 8.2837 6.25747 8.31349C6.30961 8.33584 6.35059 8.34702 6.38038 8.34702C6.42508 8.34702 6.46978 8.33584 6.51447 8.31349C6.55917 8.2837 6.60759 8.2539 6.65973 8.2241C6.94281 8.04532 7.23706 7.83301 7.54248 7.58718C7.85536 7.3339 8.14588 7.05455 8.41406 6.74913C8.68224 6.4437 8.89827 6.11966 9.06216 5.77698C9.23349 5.43431 9.31916 5.08047 9.31916 4.71545C9.31916 4.22379 9.16645 3.8178 8.86102 3.49748C8.5556 3.17716 8.16823 3.01699 7.69892 3.01699C7.4084 3.01699 7.14767 3.09894 6.91674 3.26282C6.69326 3.41926 6.51075 3.62412 6.36921 3.8774C6.23512 3.62412 6.05261 3.41926 5.82168 3.26282C5.5982 3.09894 5.33375 3.01699 5.02832 3.01699ZM4.1344 13.3418H15.3643C15.558 13.3418 15.7182 13.2748 15.8448 13.1407C15.9789 13.0066 16.0459 12.8427 16.0459 12.649C16.0459 12.4553 15.9789 12.2952 15.8448 12.1685C15.7182 12.0345 15.558 11.9674 15.3643 11.9674H4.1344C3.93327 11.9674 3.76566 12.0345 3.63157 12.1685C3.49748 12.2952 3.43043 12.4553 3.43043 12.649C3.43043 12.8427 3.49748 13.0066 3.63157 13.1407C3.76566 13.2748 3.93327 13.3418 4.1344 13.3418ZM4.1344 17.1633H12.4144C12.6155 17.1633 12.7794 17.1 12.906 16.9734C13.0401 16.8393 13.1072 16.6754 13.1072 16.4817C13.1072 16.288 13.0401 16.1242 12.906 15.9901C12.7794 15.856 12.6155 15.7889 12.4144 15.7889H4.1344C3.93327 15.7889 3.76566 15.856 3.63157 15.9901C3.49748 16.1242 3.43043 16.288 3.43043 16.4817C3.43043 16.6754 3.49748 16.8393 3.63157 16.9734C3.76566 17.1 3.93327 17.1633 4.1344 17.1633Z" fill="white"/>
</svg>
