<svg width="16" height="16" viewBox="0 0 16 16" fill="none" xmlns="http://www.w3.org/2000/svg">
<path d="M4.36117 0.517911C4.36117 0.342972 4.31904 0.211768 4.23476 0.124299C4.14447 0.0368292 4.02709 -0.00447578 3.88262 0.000383638C3.73815 0.00524305 3.58465 0.0538372 3.42212 0.146166L0.550791 1.78622C0.340106 1.9077 0.234763 2.0462 0.234763 2.2017C0.234763 2.3572 0.340106 2.49326 0.550791 2.60989L3.43115 4.24994C3.59368 4.34713 3.74718 4.39815 3.89165 4.40301C4.0301 4.40301 4.14447 4.35928 4.23476 4.27181C4.31904 4.18434 4.36117 4.05556 4.36117 3.88548V0.517911ZM10.5553 14.2433C10.754 14.2433 10.9255 14.185 11.07 14.0684C11.2144 13.9518 11.2867 13.8133 11.2867 13.6529C11.2867 13.4925 11.2144 13.354 11.07 13.2374C10.9255 13.1257 10.754 13.0698 10.5553 13.0698H4.75847C3.74718 13.0698 2.94357 12.89 2.34763 12.5304C1.75169 12.1708 1.45372 11.6873 1.45372 11.0798C1.45372 10.4627 1.79684 9.95246 2.48307 9.54913C3.16328 9.1458 4.18059 8.88825 5.53499 8.77648L10.6998 8.33914C12.4454 8.19821 13.7667 7.81675 14.6637 7.19474C15.5546 6.57274 16 5.76608 16 4.77476C16 4.12846 15.8074 3.56962 15.4221 3.09826C15.0309 2.62204 14.4801 2.25515 13.7698 1.9976C13.0594 1.74005 12.2167 1.61128 11.2415 1.61128H3.30474C3.1061 1.61128 2.93454 1.66959 2.79007 1.78622C2.6456 1.90284 2.57336 2.04134 2.57336 2.2017C2.57336 2.36206 2.6456 2.50055 2.79007 2.61718C2.93454 2.72894 3.1061 2.78483 3.30474 2.78483H11.2415C12.2588 2.78483 13.0655 2.96463 13.6614 3.32422C14.2513 3.68382 14.5463 4.16733 14.5463 4.77476C14.5463 5.3919 14.2062 5.90214 13.526 6.30547C12.8397 6.7088 11.8194 6.96635 10.465 7.07812L5.31828 7.51547C3.56659 7.65639 2.24229 8.03785 1.34537 8.65986C0.448458 9.28186 0 10.0885 0 11.0798C0 11.7261 0.195637 12.2874 0.586908 12.7636C0.97216 13.235 1.52295 13.5995 2.23928 13.857C2.94959 14.1145 3.78932 14.2433 4.75847 14.2433H10.5553ZM13.0926 16C13.6283 16 14.1159 15.8931 14.5553 15.6793C14.9947 15.4703 15.3469 15.186 15.6117 14.8265C15.8706 14.4717 16 14.0781 16 13.6456C16 13.2131 15.8706 12.8195 15.6117 12.4648C15.3469 12.11 14.9947 11.8282 14.5553 11.6192C14.1159 11.4054 13.6283 11.2985 13.0926 11.2985C12.5568 11.2985 12.0692 11.4054 11.6298 11.6192C11.1904 11.8282 10.8412 12.11 10.5824 12.4648C10.3175 12.8195 10.1851 13.2131 10.1851 13.6456C10.1851 14.0781 10.3175 14.4717 10.5824 14.8265C10.8412 15.186 11.1904 15.4703 11.6298 15.6793C12.0692 15.8931 12.5568 16 13.0926 16ZM13.0926 14.8556C12.6712 14.8556 12.319 14.739 12.0361 14.5057C11.7472 14.2725 11.6027 13.9858 11.6027 13.6456C11.6027 13.3103 11.7472 13.026 12.0361 12.7928C12.319 12.5595 12.6712 12.4429 13.0926 12.4429C13.5079 12.4429 13.86 12.5595 14.149 12.7928C14.4379 13.026 14.5824 13.3103 14.5824 13.6456C14.5824 13.9858 14.4379 14.2725 14.149 14.5057C13.86 14.739 13.5079 14.8556 13.0926 14.8556Z" fill="black"/>
</svg>
