<svg width="33" height="19" viewBox="0 0 33 19" fill="none" xmlns="http://www.w3.org/2000/svg">
<path d="M17.4694 8.04085C17.2509 8.04085 17.0262 7.95461 16.7955 7.78214C16.5648 7.60966 16.3128 7.42338 16.0396 7.22331C15.7663 7.01634 15.4506 6.86111 15.0924 6.75763L18.9357 1.01416C19.2393 0.558824 19.5793 0.258715 19.9558 0.113834C20.3383 -0.0379448 20.7178 -0.0379448 21.0942 0.113834C21.4707 0.265614 21.8076 0.565723 22.1051 1.01416L25.9485 6.75763C25.5963 6.85421 25.2836 7.00599 25.0104 7.21296C24.7372 7.41993 24.4852 7.60966 24.2545 7.78214C24.0299 7.95461 23.8052 8.04085 23.5805 8.04085C23.3741 8.04085 23.1677 7.97186 22.9612 7.83388C22.7609 7.689 22.5423 7.52342 22.3055 7.33715C22.0748 7.15087 21.8137 6.98874 21.5223 6.85076C21.2308 6.70588 20.8969 6.63344 20.5204 6.63344C20.1501 6.63344 19.8192 6.70588 19.5277 6.85076C19.2363 6.98874 18.9722 7.15087 18.7354 7.33715C18.5047 7.52342 18.2861 7.689 18.0796 7.83388C17.8793 7.97186 17.6759 8.04085 17.4694 8.04085ZM10.6662 18.2963C10.2472 18.2963 9.91023 18.1928 9.65522 17.9858C9.40021 17.7858 9.2211 17.5271 9.11788 17.2097C9.01466 16.8992 8.98734 16.5681 9.03591 16.2162C9.09056 15.8575 9.2211 15.5263 9.42754 15.2228L14.1816 8.12364C14.2484 8.08224 14.3152 8.04775 14.382 8.02015C14.4488 7.99256 14.5156 7.97876 14.5824 7.97876C14.7524 7.97876 14.9284 8.04775 15.1106 8.18573C15.2927 8.32371 15.4931 8.48239 15.7117 8.66177C15.9363 8.83424 16.1914 8.98947 16.4767 9.12745C16.7621 9.26543 17.093 9.33442 17.4694 9.33442C17.858 9.33442 18.195 9.26543 18.4804 9.12745C18.7718 8.98257 19.0298 8.81699 19.2545 8.63072C19.4792 8.44444 19.6917 8.28232 19.892 8.14434C20.0985 7.99946 20.3079 7.92702 20.5204 7.92702C20.739 7.92702 20.9485 7.99946 21.1489 8.14434C21.3553 8.28232 21.5708 8.44444 21.7955 8.63072C22.0201 8.81699 22.2751 8.98257 22.5605 9.12745C22.852 9.26543 23.192 9.33442 23.5805 9.33442C23.9448 9.33442 24.2636 9.27233 24.5368 9.14815C24.8161 9.01707 25.062 8.86529 25.2745 8.69281C25.4931 8.52033 25.6935 8.36856 25.8756 8.23747C26.0639 8.09949 26.249 8.0167 26.4312 7.98911C26.4798 7.98911 26.5253 7.99256 26.5678 7.99946C26.6164 8.00635 26.6649 8.02015 26.7135 8.04085C26.7621 8.05465 26.8076 8.0719 26.8501 8.09259L31.6224 15.2124C31.8289 15.516 31.9564 15.8471 32.005 16.2059C32.0596 16.5577 32.0353 16.8923 31.9321 17.2097C31.8289 17.5271 31.6467 17.7858 31.3857 17.9858C31.1306 18.1928 30.7967 18.2963 30.3838 18.2963H10.6662ZM6.26724 10.6797C6.09116 10.6797 5.90902 10.6107 5.72079 10.4728C5.53864 10.3348 5.33524 10.183 5.11059 10.0174C4.88594 9.85185 4.6279 9.72767 4.33646 9.64488L7.36014 5.38126C7.67586 4.93972 8.01588 4.64651 8.38018 4.50163C8.75055 4.35675 9.11788 4.35675 9.48218 4.50163C9.85255 4.64651 10.1926 4.93972 10.5022 5.38126L12.5332 8.23747L11.2126 10.2037C11.164 10.2382 11.1185 10.2658 11.076 10.2865C11.0396 10.3072 10.9971 10.3175 10.9485 10.3175C10.8574 10.3175 10.7238 10.2451 10.5478 10.1002C10.3717 9.95534 10.147 9.81046 9.8738 9.66558C9.60665 9.5207 9.29092 9.44826 8.92662 9.44826C8.49554 9.44826 8.12517 9.55174 7.81551 9.75871C7.50586 9.95879 7.2296 10.1623 6.98673 10.3693C6.74387 10.5763 6.50404 10.6797 6.26724 10.6797ZM1.68618 18.2963C1.24902 18.2963 0.896869 18.1894 0.629717 17.9755C0.368636 17.7685 0.186486 17.4995 0.0832683 17.1683C-0.0138781 16.8371 -0.0260214 16.4818 0.0468384 16.1024C0.119698 15.7229 0.277561 15.3607 0.520427 15.0158L3.4166 10.9488C3.49553 10.8798 3.57447 10.8246 3.6534 10.7832C3.7384 10.7418 3.8234 10.7211 3.90841 10.7211C4.11484 10.7211 4.31824 10.8143 4.51861 11.0005C4.72504 11.1799 4.96487 11.3627 5.2381 11.549C5.51132 11.7284 5.85437 11.8181 6.26724 11.8181C6.60725 11.8181 6.90173 11.756 7.15067 11.6318C7.40568 11.5076 7.63033 11.3662 7.82462 11.2075C8.02498 11.0419 8.21017 10.8971 8.38018 10.7729C8.55625 10.6487 8.7384 10.5866 8.92662 10.5866C9.06627 10.5866 9.19378 10.6176 9.30914 10.6797C9.43057 10.7349 9.54593 10.8074 9.65522 10.8971C9.77058 10.9798 9.89202 11.0626 10.0195 11.1454C10.1531 11.2282 10.3019 11.2903 10.4658 11.3317L8.43482 14.3638C8.1616 14.7847 7.97338 15.2262 7.87016 15.6885C7.76694 16.1507 7.74265 16.606 7.7973 17.0545C7.85801 17.5098 7.99159 17.9237 8.19803 18.2963H1.68618Z" fill="white"/>
</svg>
